<svg id="visual" viewBox="0 0 900 600" width="900" height="600" xmlns="http://www.w3.org/2000/svg" xmlns:xlink="http://www.w3.org/1999/xlink" version="1.1"><rect x="0" y="0" width="900" height="600" fill="#222831"></rect><defs><linearGradient id="grad1_0" x1="33.3%" y1="0%" x2="100%" y2="100%"><stop offset="20%" stop-color="#222831" stop-opacity="1"></stop><stop offset="80%" stop-color="#222831" stop-opacity="1"></stop></linearGradient></defs><defs><linearGradient id="grad2_0" x1="0%" y1="0%" x2="66.7%" y2="100%"><stop offset="20%" stop-color="#222831" stop-opacity="1"></stop><stop offset="80%" stop-color="#222831" stop-opacity="1"></stop></linearGradient></defs><g transform="translate(900, 0)"><path d="M0 270.4C-30.2 271.1 -60.4 271.9 -83.6 257.2C-106.7 242.5 -122.8 212.5 -137.5 189.3C-152.3 166.2 -165.6 149.9 -183.6 133.4C-201.7 116.9 -224.4 100.2 -239.7 77.9C-254.9 55.6 -262.7 27.8 -270.4 0L0 0Z" fill="#00ADB5"></path></g><g transform="translate(0, 600)"><path d="M0 -270.4C26.7 -263.5 53.4 -256.5 80 -246.3C106.6 -236.2 133.1 -222.8 145.8 -200.6C158.4 -178.5 157.2 -147.6 177.2 -128.7C197.1 -109.9 238.1 -103 257.2 -83.6C276.2 -64.1 273.3 -32.1 270.4 0L0 0Z" fill="#00ADB5"></path></g></svg>